<mxfile host="Electron" agent="Mozilla/5.0 (Windows NT 10.0; Win64; x64) AppleWebKit/537.36 (KHTML, like Gecko) draw.io/27.0.9 Chrome/134.0.6998.205 Electron/35.4.0 Safari/537.36" version="27.0.9">
  <diagram id="NJzXc077gKfx2x9PyLhV" name="Страница — 1">
    <mxGraphModel dx="1584" dy="1343" grid="1" gridSize="10" guides="1" tooltips="1" connect="1" arrows="1" fold="1" page="0" pageScale="1" pageWidth="827" pageHeight="1169" math="0" shadow="0">
      <root>
        <mxCell id="0" />
        <mxCell id="1" parent="0" />
        <mxCell id="T74X21EY0gJX1T98v7RT-1" value="" style="rounded=1;whiteSpace=wrap;html=1;perimeterSpacing=0;sketch=1;curveFitting=1;jiggle=2;glass=0;shadow=1;" vertex="1" parent="1">
          <mxGeometry x="140" y="-20" width="1250" height="640" as="geometry" />
        </mxCell>
        <mxCell id="T74X21EY0gJX1T98v7RT-2" value="&lt;div style=&quot;background-color: rgb(0, 0, 0); font-family: Consolas, &amp;quot;Courier New&amp;quot;, monospace; line-height: 19px; white-space: pre;&quot;&gt;&lt;font style=&quot;font-size: 25px;&quot;&gt;Доставка и оплата&lt;/font&gt;&lt;/div&gt;" style="text;html=1;align=center;verticalAlign=middle;whiteSpace=wrap;rounded=0;strokeWidth=1;fontSize=20;" vertex="1" parent="1">
          <mxGeometry x="170" y="10" width="250" height="40" as="geometry" />
        </mxCell>
        <mxCell id="T74X21EY0gJX1T98v7RT-3" value="&lt;div style=&quot;background-color: rgb(0, 0, 0); font-family: Consolas, &amp;quot;Courier New&amp;quot;, monospace; line-height: 19px; white-space: pre;&quot;&gt;Работаем по всей России. Без наценок. Удобно и прозрачно.&lt;/div&gt;" style="text;html=1;align=center;verticalAlign=middle;whiteSpace=wrap;rounded=0;fontSize=11;" vertex="1" parent="1">
          <mxGeometry x="160" y="50" width="380" height="30" as="geometry" />
        </mxCell>
        <mxCell id="T74X21EY0gJX1T98v7RT-5" value="" style="rounded=1;whiteSpace=wrap;html=1;" vertex="1" parent="1">
          <mxGeometry x="180" y="110" width="490" height="230" as="geometry" />
        </mxCell>
        <mxCell id="T74X21EY0gJX1T98v7RT-6" value="" style="rounded=1;whiteSpace=wrap;html=1;" vertex="1" parent="1">
          <mxGeometry x="690" y="110" width="360" height="230" as="geometry" />
        </mxCell>
        <mxCell id="T74X21EY0gJX1T98v7RT-7" value="" style="rounded=1;whiteSpace=wrap;html=1;" vertex="1" parent="1">
          <mxGeometry x="1070" y="110" width="290" height="450" as="geometry" />
        </mxCell>
        <mxCell id="T74X21EY0gJX1T98v7RT-10" value="видео кастровой чаши" style="text;html=1;align=center;verticalAlign=middle;whiteSpace=wrap;rounded=0;" vertex="1" parent="1">
          <mxGeometry x="1125" y="305" width="180" height="50" as="geometry" />
        </mxCell>
        <mxCell id="T74X21EY0gJX1T98v7RT-13" value="" style="rounded=1;whiteSpace=wrap;html=1;" vertex="1" parent="1">
          <mxGeometry x="180" y="370" width="420" height="190" as="geometry" />
        </mxCell>
        <mxCell id="T74X21EY0gJX1T98v7RT-14" value="" style="rounded=1;whiteSpace=wrap;html=1;" vertex="1" parent="1">
          <mxGeometry x="200" y="390" width="110" height="60" as="geometry" />
        </mxCell>
        <mxCell id="T74X21EY0gJX1T98v7RT-15" value="иконка банковской карты" style="text;html=1;align=center;verticalAlign=middle;whiteSpace=wrap;rounded=0;" vertex="1" parent="1">
          <mxGeometry x="200" y="405" width="110" height="30" as="geometry" />
        </mxCell>
        <mxCell id="T74X21EY0gJX1T98v7RT-18" value="Text" style="text;html=1;align=center;verticalAlign=middle;whiteSpace=wrap;rounded=0;" vertex="1" parent="1">
          <mxGeometry x="395" y="210" width="60" height="30" as="geometry" />
        </mxCell>
        <mxCell id="T74X21EY0gJX1T98v7RT-19" value="Text" style="text;html=1;align=center;verticalAlign=middle;whiteSpace=wrap;rounded=0;" vertex="1" parent="1">
          <mxGeometry x="840" y="210" width="60" height="30" as="geometry" />
        </mxCell>
        <mxCell id="T74X21EY0gJX1T98v7RT-21" value="" style="rounded=1;whiteSpace=wrap;html=1;" vertex="1" parent="1">
          <mxGeometry x="630" y="370" width="420" height="190" as="geometry" />
        </mxCell>
        <mxCell id="T74X21EY0gJX1T98v7RT-16" value="" style="rounded=1;whiteSpace=wrap;html=1;" vertex="1" parent="1">
          <mxGeometry x="650" y="390" width="110" height="60" as="geometry" />
        </mxCell>
        <mxCell id="T74X21EY0gJX1T98v7RT-17" value="иконка юр. документа" style="text;html=1;align=center;verticalAlign=middle;whiteSpace=wrap;rounded=0;" vertex="1" parent="1">
          <mxGeometry x="655" y="405" width="100" height="30" as="geometry" />
        </mxCell>
        <mxCell id="T74X21EY0gJX1T98v7RT-20" value="&lt;h5 style=&quot;box-sizing: border-box; font-family: &amp;quot;Wix Madefor Display&amp;quot;, sans-serif; line-height: 24px; margin: 0px 0px 20px; position: relative; z-index: 11; letter-spacing: -0.14px; text-align: start;&quot;&gt;&lt;font style=&quot;font-size: 12px;&quot;&gt;Юридическим лицам&lt;/font&gt;&lt;/h5&gt;&lt;p style=&quot;box-sizing: border-box; margin: 0px; color: rgba(255, 255, 255, 0.8); font-family: &amp;quot;Wix Madefor Display&amp;quot;, sans-serif; letter-spacing: -0.14px; text-align: start;&quot;&gt;&lt;font&gt;При покупке с юридического лица мы выставим Вам счет на оплату и предоставим закрывающие документы.&lt;/font&gt;&lt;/p&gt;" style="text;html=1;align=center;verticalAlign=middle;whiteSpace=wrap;rounded=0;" vertex="1" parent="1">
          <mxGeometry x="650" y="460" width="400" height="80" as="geometry" />
        </mxCell>
        <mxCell id="T74X21EY0gJX1T98v7RT-22" value="&lt;font&gt;Мы придерживаемся простых и понятных условий:&lt;/font&gt;&lt;div&gt;&lt;font&gt;Оплата при получении&lt;br&gt;&amp;nbsp;Перевод на карту&lt;/font&gt;&lt;/div&gt;&lt;div&gt;&lt;font style=&quot;&quot;&gt;&lt;font&gt;Онлайн-оплата по запросу&lt;/font&gt;&lt;br&gt;&lt;/font&gt;&lt;/div&gt;" style="text;html=1;align=center;verticalAlign=middle;whiteSpace=wrap;rounded=0;" vertex="1" parent="1">
          <mxGeometry x="200" y="470" width="300" height="80" as="geometry" />
        </mxCell>
        <mxCell id="T74X21EY0gJX1T98v7RT-39" value="" style="rounded=1;whiteSpace=wrap;html=1;" vertex="1" parent="1">
          <mxGeometry x="220" y="1620" width="1360" height="265" as="geometry" />
        </mxCell>
        <mxCell id="T74X21EY0gJX1T98v7RT-40" value="" style="rounded=1;whiteSpace=wrap;html=1;" vertex="1" parent="1">
          <mxGeometry x="250" y="1655" width="300" height="200" as="geometry" />
        </mxCell>
        <mxCell id="T74X21EY0gJX1T98v7RT-41" value="" style="rounded=1;whiteSpace=wrap;html=1;" vertex="1" parent="1">
          <mxGeometry x="580" y="1655" width="300" height="200" as="geometry" />
        </mxCell>
        <mxCell id="T74X21EY0gJX1T98v7RT-42" value="" style="rounded=1;whiteSpace=wrap;html=1;" vertex="1" parent="1">
          <mxGeometry x="910" y="1652.5" width="300" height="200" as="geometry" />
        </mxCell>
        <mxCell id="T74X21EY0gJX1T98v7RT-43" value="" style="rounded=1;whiteSpace=wrap;html=1;" vertex="1" parent="1">
          <mxGeometry x="1240" y="1652.5" width="300" height="200" as="geometry" />
        </mxCell>
        <mxCell id="T74X21EY0gJX1T98v7RT-46" value="4 фото" style="text;html=1;align=center;verticalAlign=middle;whiteSpace=wrap;rounded=0;" vertex="1" parent="1">
          <mxGeometry x="270" y="1675" width="70" height="30" as="geometry" />
        </mxCell>
        <mxCell id="T74X21EY0gJX1T98v7RT-47" value="&lt;font style=&quot;font-size: 14px;&quot;&gt;Печь Колывань Про&lt;br&gt;п.Шерегеш ...&lt;/font&gt;" style="text;html=1;align=center;verticalAlign=middle;whiteSpace=wrap;rounded=0;" vertex="1" parent="1">
          <mxGeometry x="310" y="1790" width="160" height="60" as="geometry" />
        </mxCell>
        <mxCell id="T74X21EY0gJX1T98v7RT-57" value="" style="edgeStyle=orthogonalEdgeStyle;rounded=0;orthogonalLoop=1;jettySize=auto;html=1;" edge="1" parent="1" source="T74X21EY0gJX1T98v7RT-48" target="T74X21EY0gJX1T98v7RT-54">
          <mxGeometry relative="1" as="geometry" />
        </mxCell>
        <mxCell id="T74X21EY0gJX1T98v7RT-58" value="" style="edgeStyle=orthogonalEdgeStyle;rounded=0;orthogonalLoop=1;jettySize=auto;html=1;" edge="1" parent="1" source="T74X21EY0gJX1T98v7RT-48" target="T74X21EY0gJX1T98v7RT-55">
          <mxGeometry relative="1" as="geometry" />
        </mxCell>
        <mxCell id="T74X21EY0gJX1T98v7RT-48" value="" style="rounded=1;whiteSpace=wrap;html=1;" vertex="1" parent="1">
          <mxGeometry x="640" y="1070" width="520" height="300" as="geometry" />
        </mxCell>
        <mxCell id="T74X21EY0gJX1T98v7RT-51" value="" style="curved=1;endArrow=classic;html=1;rounded=0;exitX=0.5;exitY=0;exitDx=0;exitDy=0;entryX=0.5;entryY=1;entryDx=0;entryDy=0;" edge="1" parent="1" source="T74X21EY0gJX1T98v7RT-40" target="T74X21EY0gJX1T98v7RT-48">
          <mxGeometry width="50" height="50" relative="1" as="geometry">
            <mxPoint x="770" y="1420" as="sourcePoint" />
            <mxPoint x="330" y="1280" as="targetPoint" />
            <Array as="points">
              <mxPoint x="820" y="1550" />
            </Array>
          </mxGeometry>
        </mxCell>
        <mxCell id="T74X21EY0gJX1T98v7RT-56" value="" style="edgeStyle=orthogonalEdgeStyle;rounded=0;orthogonalLoop=1;jettySize=auto;html=1;" edge="1" parent="1" source="T74X21EY0gJX1T98v7RT-54" target="T74X21EY0gJX1T98v7RT-48">
          <mxGeometry relative="1" as="geometry" />
        </mxCell>
        <mxCell id="T74X21EY0gJX1T98v7RT-54" value="" style="rounded=1;whiteSpace=wrap;html=1;" vertex="1" parent="1">
          <mxGeometry x="30" y="1070" width="520" height="300" as="geometry" />
        </mxCell>
        <mxCell id="T74X21EY0gJX1T98v7RT-59" value="" style="edgeStyle=orthogonalEdgeStyle;rounded=0;orthogonalLoop=1;jettySize=auto;html=1;" edge="1" parent="1" source="T74X21EY0gJX1T98v7RT-55" target="T74X21EY0gJX1T98v7RT-48">
          <mxGeometry relative="1" as="geometry" />
        </mxCell>
        <mxCell id="T74X21EY0gJX1T98v7RT-55" value="" style="rounded=1;whiteSpace=wrap;html=1;" vertex="1" parent="1">
          <mxGeometry x="1250" y="1070" width="520" height="300" as="geometry" />
        </mxCell>
        <mxCell id="T74X21EY0gJX1T98v7RT-60" value="Фото" style="text;html=1;align=center;verticalAlign=middle;whiteSpace=wrap;rounded=0;" vertex="1" parent="1">
          <mxGeometry x="815" y="1190" width="170" height="60" as="geometry" />
        </mxCell>
        <mxCell id="T74X21EY0gJX1T98v7RT-61" value="Фото" style="text;html=1;align=center;verticalAlign=middle;whiteSpace=wrap;rounded=0;" vertex="1" parent="1">
          <mxGeometry x="205" y="1190" width="170" height="60" as="geometry" />
        </mxCell>
        <mxCell id="T74X21EY0gJX1T98v7RT-62" value="Фото" style="text;html=1;align=center;verticalAlign=middle;whiteSpace=wrap;rounded=0;" vertex="1" parent="1">
          <mxGeometry x="1425" y="1190" width="170" height="60" as="geometry" />
        </mxCell>
        <mxCell id="T74X21EY0gJX1T98v7RT-64" style="edgeStyle=orthogonalEdgeStyle;rounded=0;orthogonalLoop=1;jettySize=auto;html=1;" edge="1" parent="1" source="T74X21EY0gJX1T98v7RT-63">
          <mxGeometry relative="1" as="geometry">
            <mxPoint x="600" y="1220" as="targetPoint" />
          </mxGeometry>
        </mxCell>
        <mxCell id="T74X21EY0gJX1T98v7RT-63" value="&lt;font style=&quot;font-size: 21px;&quot;&gt;Слайдер фото&lt;/font&gt;" style="text;html=1;align=center;verticalAlign=middle;whiteSpace=wrap;rounded=0;" vertex="1" parent="1">
          <mxGeometry x="425" y="960" width="350" height="60" as="geometry" />
        </mxCell>
        <mxCell id="T74X21EY0gJX1T98v7RT-66" style="edgeStyle=orthogonalEdgeStyle;rounded=0;orthogonalLoop=1;jettySize=auto;html=1;" edge="1" parent="1" source="T74X21EY0gJX1T98v7RT-65">
          <mxGeometry relative="1" as="geometry">
            <mxPoint x="1199.9999999999995" y="1220" as="targetPoint" />
          </mxGeometry>
        </mxCell>
        <mxCell id="T74X21EY0gJX1T98v7RT-65" value="&lt;font style=&quot;font-size: 21px;&quot;&gt;Слайдер фото&lt;/font&gt;" style="text;html=1;align=center;verticalAlign=middle;whiteSpace=wrap;rounded=0;" vertex="1" parent="1">
          <mxGeometry x="1040" y="960" width="350" height="60" as="geometry" />
        </mxCell>
      </root>
    </mxGraphModel>
  </diagram>
</mxfile>
